<svg xmlns="http://www.w3.org/2000/svg" width="422.487" height="380.112" viewBox="0 0 422.487 380.112">
  <g id="cardiology" transform="translate(0 -54.537)">
    <path id="Path_109" data-name="Path 109" d="M375.1,297.866H350.6V269.857c0-6.859-4.881-12.439-10.881-12.439h-26c-6,0-10.881,5.58-10.881,12.439v28.009h-24.5c-6,0-10.881,5.581-10.881,12.44v29.72c0,6.859,4.881,12.439,10.881,12.439h24.5v28.009c0,6.859,4.881,12.439,10.881,12.439h26c6,0,10.881-5.58,10.881-12.439V352.466h24.5c6,0,10.881-5.58,10.881-12.439v-29.72C385.984,303.448,381.1,297.866,375.1,297.866Zm-1.5,40.449h-24.5c-6,0-10.882,5.58-10.882,12.439v28.01h-23v-28.01c0-6.859-4.882-12.439-10.882-12.439h-24.5v-26.3h24.5c6,0,10.882-5.58,10.882-12.439V271.569h23v28.009c0,6.859,4.882,12.439,10.882,12.439h24.5ZM256.951,134.487v13.741c0,3.907,2.771,7.075,6.189,7.075s6.189-3.168,6.189-7.075V134.487c0-3.907-2.771-7.075-6.189-7.075S256.951,130.579,256.951,134.487Zm-125.1,0v13.741c0,3.907,2.771,7.075,6.189,7.075s6.189-3.168,6.189-7.075V134.487c0-3.907-2.771-7.075-6.189-7.075S131.854,130.579,131.854,134.487Zm227.57,87.774c8.838-23.516,12.637-46.31,11.265-67.854a116.161,116.161,0,0,0-15.261-50.737c-1.892-3.256-5.732-4.141-8.579-1.98a7.718,7.718,0,0,0-1.732,9.808,100.594,100.594,0,0,1,13.228,43.936c1.257,19.737-2.413,40.854-10.894,62.841a84.248,84.248,0,0,0-20.726-2.59,85.291,85.291,0,0,0-39.841,9.937L255.6,189.85c-9.247-10.573-24.294-10.572-33.541,0l-51.4,58.769-36.633-41.881c-9.247-10.573-24.294-10.573-33.541,0l-28.27,32.32h-9.16c-15.065-29.493-21.866-57.61-20.21-83.623,3.1-48.694,40.244-87.3,83.314-86.738,24.493.318,47.454,12.962,63,34.69,5.921,8.278,16.976,8.263,22.886,0,15.543-21.729,38.5-34.373,63-34.691,18.153-.24,36.243,6.691,50.958,19.5a5.692,5.692,0,0,0,8.673-1.342,7.767,7.767,0,0,0-1.173-9.916c-16.9-14.715-37.734-22.689-58.6-22.4-28.166.368-54.569,14.9-72.438,39.885a2.219,2.219,0,0,1-3.722,0c-17.868-24.98-44.271-39.517-72.438-39.882-49.334-.66-92.205,43.416-95.8,99.861-1.7,26.761,4.474,55.19,18.364,84.65H23.717C10.64,239.058,0,251.222,0,266.173s10.64,27.115,23.717,27.115c13.445,0,57.694.009,58.75-.012a397.335,397.335,0,0,0,65.816,66.943,5.715,5.715,0,0,0,8.619-1.742,7.74,7.74,0,0,0-1.523-9.854A385.4,385.4,0,0,1,95.4,288.572c3.261-2.555,3.753-3.828,21.849-24.316l36.633,41.881c9.248,10.572,24.293,10.571,33.541,0l51.4-58.769,11.019,12.6a119.527,119.527,0,0,0-18.882,65.2,123.646,123.646,0,0,0,4.1,31.7,256.141,256.141,0,0,1-23.755,15.669,21.256,21.256,0,0,1-21.428,0c-3.241-1.866-6.616-3.936-10.032-6.152-2.973-1.928-6.75-.737-8.437,2.662a7.643,7.643,0,0,0,2.329,9.645c3.593,2.33,7.149,4.511,10.571,6.482a32.31,32.31,0,0,0,32.565,0,263.575,263.575,0,0,0,22.647-14.78c15.084,37.867,48.5,64.258,87.2,64.258,52.8,0,95.762-49.113,95.762-109.481,0-47.245-26.313-87.594-63.063-102.906ZM243.2,232.36a5.656,5.656,0,0,0-8.752,0l-55.781,63.772a10.376,10.376,0,0,1-16.037,0l-41.009-46.885a5.657,5.657,0,0,0-8.752,0L90.048,275.337a10.633,10.633,0,0,1-8.019,3.8H23.717c-6.252,0-11.339-5.815-11.339-12.964s5.087-12.964,11.339-12.964c25.238,0,40.659,0,51.052,0a5.821,5.821,0,0,0,4.376-2.073l30.082-34.393a10.375,10.375,0,0,1,16.036,0l41.009,46.884a5.656,5.656,0,0,0,8.752,0l55.782-63.773a10.377,10.377,0,0,1,16.036,0l28.7,32.816a100.41,100.41,0,0,0-17.664,16.473ZM326.725,420.5c-45.978,0-83.385-42.766-83.385-95.331s37.407-95.331,83.385-95.331S410.11,272.6,410.11,325.167,372.7,420.5,326.725,420.5ZM212.415,143.171a14.427,14.427,0,0,1-23.65,0,5.665,5.665,0,0,0-8.732-.685,7.8,7.8,0,0,0-.6,9.982c5.336,7,13.048,11.016,21.156,11.016s15.82-4.015,21.157-11.016a7.8,7.8,0,0,0-.6-9.983,5.665,5.665,0,0,0-8.731.686Z" transform="translate(0 0)" fill="#54adff"/>
  </g>
</svg>
