<svg xmlns="http://www.w3.org/2000/svg" width="422.142" height="414.006" viewBox="0 0 422.142 414.006">
  <g id="grave" transform="translate(-26.001)">
    <g id="Group_19" data-name="Group 19" transform="translate(26.001)">
      <path id="Path_110" data-name="Path 110" d="M411.435,349.317V153.635c0-40.877-18.187-79.413-51.211-108.511S283.463,0,237.072,0a190.823,190.823,0,0,0-92.718,23.682c-4.284,2.387-5.561,7.382-2.853,11.156s8.378,4.9,12.661,2.514a170.631,170.631,0,0,1,82.91-21.181c86.023,0,156.009,61.666,156.009,137.463V349.317H81.063V153.635c0-25.879,8.313-51.14,24.038-73.054,2.708-3.775,1.433-8.769-2.851-11.156S92.3,68.163,89.588,71.937C72,96.442,62.709,124.692,62.709,153.635V349.317C42.468,349.317,26,363.827,26,381.661V405.92c0,4.465,4.109,8.086,9.177,8.086H438.966c5.068,0,9.177-3.621,9.177-8.086V381.661C448.143,363.827,431.675,349.317,411.435,349.317Zm18.354,48.517H44.355V381.661c0-8.917,8.234-16.172,18.354-16.172H411.435c10.12,0,18.354,7.255,18.354,16.172Z" transform="translate(-26.001 0)" fill="#7b7b7b"/>
      <path id="Path_111" data-name="Path 111" d="M166,360.087v32.344c0,4.465,4.109,8.086,9.177,8.086H322.01c5.068,0,9.177-3.621,9.177-8.086V360.087c0-4.465-4.11-8.086-9.177-8.086H175.178C170.11,352,166,355.622,166,360.087Zm18.354,8.086H312.833v16.172H184.355Z" transform="translate(-37.523 -67.372)" fill="#7b7b7b"/>
      <path id="Path_112" data-name="Path 112" d="M236.005,320.086c0,4.465,4.11,8.086,9.177,8.086H300.24c5.068,0,9.177-3.621,9.177-8.086S305.308,312,300.24,312H245.182C240.114,312,236.005,315.621,236.005,320.086Z" transform="translate(-43.285 -59.716)" fill="#7b7b7b"/>
      <path id="Path_113" data-name="Path 113" d="M214.363,320.086c0-4.465-4.109-8.086-9.177-8.086h-.007c-5.067,0-9.173,3.621-9.173,8.086s4.112,8.086,9.181,8.086S214.363,324.551,214.363,320.086Z" transform="translate(-39.993 -59.716)" fill="#7b7b7b"/>
      <path id="Path_114" data-name="Path 114" d="M127.9,68.891a9.822,9.822,0,0,0,6.493-2.369,7.427,7.427,0,0,0,0-11.436,10.078,10.078,0,0,0-12.979,0l0,0a7.423,7.423,0,0,0,0,11.434A9.814,9.814,0,0,0,127.9,68.891Z" transform="translate(-33.632 -10.09)" fill="#7b7b7b"/>
      <path id="Path_115" data-name="Path 115" d="M219.648,180.914c0-15.461-14.277-28.041-31.824-28.041H165.177c-5.068,0-9.177,3.621-9.177,8.086v67.215c0,4.465,4.109,8.086,9.177,8.086s9.177-3.621,9.177-8.086v-19.22h8.172l15.243,23.263a9.47,9.47,0,0,0,7.956,4.045,10.1,10.1,0,0,0,4.579-1.085c4.389-2.233,5.894-7.178,3.359-11.046l-11.828-18.05C212.377,201.507,219.648,191.947,219.648,180.914Zm-45.293-11.869h13.47c7.428,0,13.47,5.324,13.47,11.869s-6.042,11.869-13.47,11.869h-13.47Z" transform="translate(-36.7 -29.259)" fill="#7b7b7b"/>
      <path id="Path_116" data-name="Path 116" d="M255.179,236.26c5.068,0,9.178-3.621,9.178-8.086V160.959c0-4.465-4.11-8.086-9.178-8.086S246,156.494,246,160.959v67.215C246,232.64,250.11,236.26,255.179,236.26Z" transform="translate(-44.108 -29.26)" fill="#7b7b7b"/>
      <path id="Path_117" data-name="Path 117" d="M318.47,152.873H295.823c-5.067,0-9.177,3.621-9.177,8.086v67.215c0,4.465,4.109,8.086,9.177,8.086S305,232.639,305,228.174v-19.22h13.47c17.548,0,31.824-12.58,31.824-28.041S336.018,152.873,318.47,152.873Zm0,39.909H305V169.046h13.47c7.428,0,13.47,5.324,13.47,11.869S325.9,192.783,318.47,192.783Z" transform="translate(-47.453 -29.26)" fill="#7b7b7b"/>
      <path id="Path_118" data-name="Path 118" d="M345.172,236c-5.068,0-9.174,3.621-9.174,8.086s4.112,8.086,9.181,8.086,9.176-3.621,9.176-8.086S350.247,236,345.179,236Z" transform="translate(-51.514 -45.169)" fill="#7b7b7b"/>
    </g>
  </g>
</svg>
