<svg xmlns="http://www.w3.org/2000/svg" width="421.859" height="436.926" viewBox="0 0 421.859 436.926">
  <g id="patient" transform="translate(-20.936)">
    <g id="Group_17" data-name="Group 17" transform="translate(20.936 0)">
      <g id="Group_16" data-name="Group 16">
        <g id="Group_15" data-name="Group 15">
          <path id="Path_96" data-name="Path 96" d="M425.72,411.719a6.6,6.6,0,0,0-6.775,6.4v72.765a6.786,6.786,0,0,0,13.55,0V418.119A6.6,6.6,0,0,0,425.72,411.719Z" transform="translate(-62.233 -60.36)" fill="#ff8989"/>
          <path id="Path_97" data-name="Path 97" d="M247.536,411.719a6.6,6.6,0,0,0-6.775,6.4v72.765a6.786,6.786,0,0,0,13.55,0V418.119A6.6,6.6,0,0,0,247.536,411.719Z" transform="translate(-43.549 -60.36)" fill="#ff8989"/>
          <path id="Path_98" data-name="Path 98" d="M461.747,350.426a7.042,7.042,0,0,0-9.507-1.115,6.165,6.165,0,0,0-1.181,8.981,96.164,96.164,0,0,1,22.449,61.8v61.458a6.786,6.786,0,0,0,13.55,0V420.088A108.407,108.407,0,0,0,461.747,350.426Z" transform="translate(-65.198 -51.021)" fill="#ff8989"/>
          <path id="Path_99" data-name="Path 99" d="M394.647,278.014a122.21,122.21,0,0,0-57.563-21.648,104.517,104.517,0,0,0,14.822-5.454,26.567,26.567,0,0,0,15.738-23.68,81.143,81.143,0,0,0,21.015-39.318c.917.071,1.835.117,2.753.117,18.786,0,34.07-14.535,34.07-32.4A31.835,31.835,0,0,0,412.25,130.02V94.169c.093-.207.192-.411.282-.621a48.074,48.074,0,0,0,3.858-16.481,6.53,6.53,0,0,0-6.372-6.723,6.636,6.636,0,0,0-7.067,6.061,35.835,35.835,0,0,1-2.869,12.285c-6.077,14.1-20.352,23.2-36.37,23.2H297.438a6.408,6.408,0,1,0,0,12.8h66.275A55.7,55.7,0,0,0,376.96,123.1v48.3a67.2,67.2,0,0,1-9.311,34.1v-1.657a6.114,6.114,0,0,0-.229-1.655c-8.515-30.26-40.816-44.4-54.308-49.076a25.251,25.251,0,0,0-16.475,0h0c-13.493,4.675-45.8,18.815-54.31,49.076a6.12,6.12,0,0,0-.229,1.655v2.232a65.76,65.76,0,0,1-9.315-33.735V123.1a55.651,55.651,0,0,0,13.263,1.6H267.1a6.408,6.408,0,1,0,0-12.8H246.048c-16,0-30.265-9.093-36.322-23.093-.013-.032-.026-.064-.04-.1a35.969,35.969,0,0,1-2.731-18.327c.267-2.337.62-4.7,1.049-7.01,5.44-29.3,32.323-50.57,63.923-50.57h65.9c26.522,0,50.113,14.945,60.1,38.072a6.853,6.853,0,0,0,8.78,3.489,6.3,6.3,0,0,0,3.667-8.352C398.3,18.059,369.828,0,337.826,0h-65.9c-38.141,0-70.6,25.715-77.17,61.145-.481,2.593-.877,5.235-1.176,7.852A48.156,48.156,0,0,0,197.214,93.5c.013.032.026.064.04.1.08.184.167.364.248.546v35.874a31.837,31.837,0,0,0-13.229,25.608c0,17.867,15.28,32.4,34.061,32.4.86,0,1.719-.042,2.575-.1a79.637,79.637,0,0,0,21.214,39.693,26.594,26.594,0,0,0,15.724,23.293,104.754,104.754,0,0,0,14.8,5.447,121.5,121.5,0,0,0-65.56,27.921L153.7,233.492a6.909,6.909,0,0,0-4.758-1.874H28.595a6.408,6.408,0,1,0,0,12.8H146.156l51.4,48.895c-19.025,20.159-30.562,46.777-30.562,75.753v61.458a6.736,6.736,0,0,0,13.456,0V369.066a97.651,97.651,0,0,1,26.633-66.689l2.63,2.5a6.977,6.977,0,0,0,9.516,0,6.183,6.183,0,0,0,0-9.052l-2.607-2.48a107.8,107.8,0,0,1,57.659-24.281v7.743c0,16.048,13.729,29.1,30.6,29.1s30.593-13.056,30.593-29.1v-7.736a108.388,108.388,0,0,1,51.142,19.21,6.927,6.927,0,0,0,4.012,1.266,6.838,6.838,0,0,0,5.4-2.579,6.2,6.2,0,0,0-1.382-8.957ZM391.415,175.23q-.545,0-1.089-.027c.06-1.264.093-2.533.093-3.8V136.071c.332-.015.664-.044,1-.044,11.367,0,20.614,8.793,20.614,19.6S402.781,175.23,391.415,175.23Zm7.381-63.2V124a35.721,35.721,0,0,0-7.382-.775c-.332,0-.664.013-1,.022v-1.806c0-1.206-.037-2.394-.091-3.567A52.373,52.373,0,0,0,398.8,112.03Zm-187.836-.01a52.462,52.462,0,0,0,8.464,5.846c-.055,1.178-.092,2.371-.092,3.578v1.806c-.332-.009-.664-.022-1-.022a35.677,35.677,0,0,0-7.377.774Zm7.376,63.211c-11.362,0-20.605-8.793-20.605-19.6s9.243-19.6,20.605-19.6c.332,0,.664.028,1,.044v36.266c0,.958.036,1.912.071,2.866Q218.87,175.231,218.335,175.23Zm37.223,51.831V204.712c7.24-23.922,34.3-35.627,45.687-39.574h0a11.153,11.153,0,0,1,7.264,0c11.389,3.947,38.445,15.652,45.686,39.574v22.349a13.729,13.729,0,0,1-8.144,12.325,102.573,102.573,0,0,1-82.35,0,13.729,13.729,0,0,1-8.145-12.326Zm49.32,66.051c-9.455,0-17.146-7.313-17.146-16.3V259.584a119.965,119.965,0,0,0,34.283,0v17.224C322.015,285.8,314.329,293.112,304.879,293.112Z" transform="translate(-21.026 0)" fill="#ff8989"/>
          <path id="Path_100" data-name="Path 100" d="M377.941,185.333a6.408,6.408,0,1,0,.077-12.8h-.156a6.409,6.409,0,1,0,0,12.8Z" transform="translate(-56.96 -25.297)" fill="#ff8989"/>
          <path id="Path_101" data-name="Path 101" d="M295.392,172.531h-.075a6.562,6.562,0,0,0-6.738,6.4,6.806,6.806,0,1,0,6.813-6.4Z" transform="translate(-48.468 -25.296)" fill="#ff8989"/>
          <path id="Path_102" data-name="Path 102" d="M357.023,262.558V242.277c0-5.882-5.065-10.668-11.292-10.668H324.262c-6.227,0-11.292,4.785-11.292,10.668v20.281c0,5.882,5.065,10.667,11.292,10.667h21.469C351.957,273.225,357.023,268.439,357.023,262.558Zm-13.55-2.133H326.52V244.41h16.953Z" transform="translate(-51.122 -33.955)" fill="#ff8989"/>
          <path id="Path_103" data-name="Path 103" d="M112.823,204.754a21.925,21.925,0,0,0,15.086-5.893h0a19.4,19.4,0,0,0,0-28.5,22.256,22.256,0,0,0-30.171,0,19.4,19.4,0,0,0,0,28.5A21.919,21.919,0,0,0,112.823,204.754Zm-5.5-25.345a8.118,8.118,0,0,1,11.009,0,7.079,7.079,0,0,1,0,10.4,8.121,8.121,0,0,1-11.01,0A7.077,7.077,0,0,1,107.319,179.409Z" transform="translate(-28.228 -24.119)" fill="#ff8989"/>
          <path id="Path_104" data-name="Path 104" d="M34.6,186.556a54.928,54.928,0,0,0,14.16,21.681,58.489,58.489,0,0,0,5.3,4.432,19.308,19.308,0,0,0,6.053,16.967,22.226,22.226,0,0,0,30.171,0h0a20.215,20.215,0,0,0,4.086-5.4,59.643,59.643,0,0,0,36.976-16,54.748,54.748,0,0,0,12.694-18.005,22.4,22.4,0,0,0,5.7.739,21.933,21.933,0,0,0,15.084-5.918,19.394,19.394,0,0,0,0-28.5A22.035,22.035,0,0,0,145.2,151.1a54.486,54.486,0,0,0-13.85-20.888c-.834-.787-1.692-1.537-2.563-2.267a19.368,19.368,0,0,0-2.423-25.74,22.255,22.255,0,0,0-30.169,0,19.83,19.83,0,0,0-6.085,11.883,60.03,60.03,0,0,0-41.349,16.124,54.576,54.576,0,0,0-12.814,18.272,21.485,21.485,0,0,0-8.759,5,19.374,19.374,0,0,0,0,28.5,21.437,21.437,0,0,0,7.415,4.561Zm46.108,34.026a8.11,8.11,0,0,1-11.011,0,7.069,7.069,0,0,1,0-10.4,8.108,8.108,0,0,1,11.009,0,7.069,7.069,0,0,1,0,10.4Zm74.537-54.98a7.076,7.076,0,0,1,0,10.4,8.065,8.065,0,0,1-7.555,1.894,52.6,52.6,0,0,0,.426-14.279,8.017,8.017,0,0,1,7.133,1.985Zm-49.47-54.342a8.116,8.116,0,0,1,11,0,7.075,7.075,0,0,1,.906,9.375,60.241,60.241,0,0,0-14.127-5.05,7.14,7.14,0,0,1,2.22-4.32Zm15.991,28a40.79,40.79,0,0,1,0,59.919A45.64,45.64,0,0,1,96.077,211.2a19.712,19.712,0,0,0-5.788-10.07,22.223,22.223,0,0,0-29.96-.192c-.679-.569-1.347-1.15-1.987-1.755A42.594,42.594,0,0,1,49.252,186.8a21.455,21.455,0,0,0,8.106-4.8h0a19.373,19.373,0,0,0,0-28.5,21.426,21.426,0,0,0-6.807-4.333,42.472,42.472,0,0,1,7.787-9.892C75.827,122.756,104.282,122.756,121.767,139.265Zm-85,23.279a8.111,8.111,0,0,1,11.01,0,7.07,7.07,0,0,1,0,10.4h0a8.111,8.111,0,0,1-11.01,0,7.07,7.07,0,0,1,0-10.4Z" transform="translate(-20.936 -14.118)" fill="#ff8989"/>
          <path id="Path_105" data-name="Path 105" d="M133.813,307.938H48.122a6.411,6.411,0,1,0,0,12.8h85.69a6.411,6.411,0,1,0,0-12.8Z" transform="translate(-22.909 -45.152)" fill="#ff8989"/>
          <path id="Path_106" data-name="Path 106" d="M137.758,334.281H88.941a6.411,6.411,0,1,0,0,12.8h48.817a6.411,6.411,0,1,0,0-12.8Z" transform="translate(-26.855 -49.023)" fill="#ff8989"/>
          <path id="Path_107" data-name="Path 107" d="M137.758,360.625H88.941a6.411,6.411,0,1,0,0,12.8h48.817a6.411,6.411,0,1,0,0-12.8Z" transform="translate(-26.855 -52.895)" fill="#ff8989"/>
          <path id="Path_108" data-name="Path 108" d="M129.386,398.781H107.729c-8.716,0-15.808,6.7-15.808,14.934v20.458c0,8.234,7.092,14.934,15.808,14.934h21.657c8.716,0,15.808-6.7,15.808-14.934V413.715C145.194,405.481,138.1,398.781,129.386,398.781Zm2.258,35.392a2.2,2.2,0,0,1-2.258,2.133H107.729a2.2,2.2,0,0,1-2.258-2.133V413.715a2.2,2.2,0,0,1,2.258-2.134h21.657a2.2,2.2,0,0,1,2.258,2.134Z" transform="translate(-28.285 -58.474)" fill="#ff8989"/>
        </g>
      </g>
    </g>
  </g>
</svg>
